<?xml version="1.0" standalone="no"?>
<!DOCTYPE svg PUBLIC "-//W3C//DTD SVG 20010904//EN"
 "http://www.w3.org/TR/2001/REC-SVG-20010904/DTD/svg10.dtd">
<svg version="1.0" xmlns="http://www.w3.org/2000/svg"
 width="139.000000pt" height="61.000000pt" viewBox="0 0 139.000000 61.000000"
 preserveAspectRatio="xMidYMid meet">
<metadata>
Created by potrace 1.13, written by Peter Selinger 2001-2015
</metadata>
<g transform="translate(0.000000,61.000000) scale(0.100000,-0.100000)"
fill="#000000" stroke="none">
<path d="M187 595 c-86 -30 -111 -76 -157 -285 -36 -165 -36 -226 0 -265 47
-50 196 -58 281 -15 31 17 46 33 64 73 13 29 27 69 30 90 l7 37 -80 0 -80 0
-7 -37 c-11 -59 -23 -75 -53 -71 -17 2 -28 10 -30 22 -6 29 60 306 78 328 12
15 22 19 39 13 21 -6 22 -11 16 -56 l-7 -49 80 0 79 0 7 38 c18 109 -3 152
-86 177 -63 18 -130 19 -181 0z"/>
<path d="M592 589 c-40 -9 -74 -18 -77 -20 -4 -5 -125 -532 -125 -548 0 -7 27
-11 74 -11 72 0 74 1 81 28 33 130 125 549 123 557 -2 8 -27 6 -76 -6z"/>
<path d="M737 446 c-50 -18 -62 -30 -86 -79 -28 -60 -64 -257 -53 -288 13 -34
41 -55 87 -68 112 -31 213 1 253 79 37 73 33 80 -46 80 -68 0 -69 0 -83 -33
-9 -20 -21 -32 -34 -32 -23 0 -30 23 -21 71 l7 33 107 3 107 3 15 73 c16 83 9
107 -42 145 -35 26 -156 34 -211 13z"/>
<path d="M1140 453 c-73 -15 -109 -77 -140 -239 -22 -117 -19 -144 16 -176 48
-42 175 -50 244 -15 59 29 79 71 110 224 23 115 23 122 7 147 -29 44 -62 59
-140 62 -40 1 -83 0 -97 -3z m98 -116 c2 -10 -6 -64 -19 -118 -24 -106 -40
-130 -74 -105 -17 12 -16 18 5 117 12 57 27 110 33 117 14 18 51 11 55 -11z"/>
</g>
</svg>
